<svg width="133" height="44" viewBox="0 0 133 44" fill="none" xmlns="http://www.w3.org/2000/svg">
<path d="M32.5602 15.4605H17.1064V20.0462H28.0664C27.5252 26.4771 22.175 29.2192 17.125 29.2192C10.6644 29.2192 5.02626 24.1357 5.02626 17.0103C5.02626 10.0694 10.4008 4.72354 17.1394 4.72354C22.3385 4.72354 25.4016 8.03809 25.4016 8.03809L28.6128 4.71329C28.6128 4.71329 24.4915 0.125 16.9754 0.125C7.40421 0.125 0 8.20312 0 16.9284C0 25.4787 6.96465 33.8153 17.2194 33.8153C26.2379 33.8153 32.8399 27.6368 32.8399 18.501C32.8399 16.5733 32.5597 15.4594 32.5597 15.4594L32.5602 15.4605Z" fill="#F5F5F5"/>
<path d="M45.2191 12.1394C38.8778 12.1394 34.3334 17.0972 34.3334 22.879C34.3334 28.7462 38.7415 33.7958 45.2934 33.7958C51.2246 33.7958 56.0843 29.2622 56.0843 23.0048C56.0843 15.8331 50.4316 12.1394 45.2191 12.1394ZM45.282 16.3928C48.4003 16.3928 51.3552 18.9138 51.3552 22.9764C51.3552 26.9528 48.4128 29.5455 45.2676 29.5455C41.8119 29.5455 39.0857 26.7779 39.0857 22.9449C39.0857 19.1939 41.7783 16.3928 45.282 16.3928Z" fill="#F5F5F5"/>
<path d="M68.8929 12.1394C62.5521 12.1394 58.0077 17.0972 58.0077 22.879C58.0077 28.7462 62.4153 33.7958 68.9677 33.7958C74.899 33.7958 79.7581 29.2622 79.7581 23.0048C79.7581 15.8331 74.106 12.1394 68.8929 12.1394ZM68.9564 16.3928C72.0742 16.3928 75.0295 18.9138 75.0295 22.9764C75.0295 26.9528 72.0871 29.5455 68.9419 29.5455C65.4863 29.5455 62.76 26.7779 62.76 22.9449C62.76 19.1939 65.4522 16.3928 68.9564 16.3928Z" fill="#F5F5F5"/>
<path d="M92.1134 12.1519C86.2932 12.1519 81.7184 17.2498 81.7184 22.9718C81.7184 29.4892 87.0221 33.8113 92.0134 33.8113C95.0992 33.8113 96.7404 32.5865 97.9518 31.1799V33.3155C97.9518 37.0509 95.6838 39.288 92.26 39.288C88.9524 39.288 87.2936 36.8291 86.7168 35.4334L82.5552 37.1732C84.0319 40.2948 87.0036 43.5504 92.294 43.5504C98.0813 43.5504 102.492 39.9051 102.492 32.2604V12.803H97.9518V14.6371C96.5557 13.1331 94.6467 12.1523 92.1134 12.1523V12.1519ZM92.535 16.3965C95.3886 16.3965 98.3186 18.8333 98.3186 22.9945C98.3186 27.2242 95.3948 29.5552 92.4716 29.5552C89.3687 29.5552 86.4815 27.0353 86.4815 23.0347C86.4815 18.8777 89.4802 16.3965 92.535 16.3965Z" fill="#F5F5F5"/>
<path d="M122.677 12.125C117.187 12.125 112.577 16.4936 112.577 22.9387C112.577 29.7596 117.715 33.8047 123.205 33.8047C127.786 33.8047 130.598 31.2982 132.276 29.0522L128.533 26.5618C127.562 28.0694 125.937 29.5424 123.228 29.5424C120.184 29.5424 118.784 27.8753 117.917 26.261L132.436 20.2363L131.682 18.4707C130.28 15.0132 127.008 12.1261 122.678 12.1261L122.677 12.125ZM122.867 16.2898C124.845 16.2898 126.269 17.3412 126.873 18.6028L117.177 22.6555C116.759 19.5176 119.732 16.2898 122.867 16.2898Z" fill="#F5F5F5"/>
<path d="M105.655 33.1617H110.425V1.24512H105.655V33.1617Z" fill="#F5F5F5"/>
</svg>
