<svg width="153" height="44" viewBox="0 0 153 44" fill="none" xmlns="http://www.w3.org/2000/svg">
<path d="M152.724 39.5874C152.724 41.9851 150.787 43.9286 148.397 43.9286H114.135C111.745 43.9286 109.809 41.9851 109.809 39.5874V4.84518C109.809 2.44763 111.745 0.503906 114.135 0.503906H148.397C150.787 0.503906 152.724 2.44763 152.724 4.84518V39.5874Z" fill="#F5F5F5"/>
<path d="M0 9.25977H5.7738V30.0009H15.954V34.863H0V9.25977Z" fill="#F5F5F5"/>
<path d="M23.9674 11.1216C23.9674 12.7166 22.79 14.0084 20.8528 14.0084C19.0294 14.0084 17.8517 12.7166 17.8517 11.1216C17.8517 9.48817 19.0676 8.23462 20.9289 8.23462C22.79 8.23462 23.9297 9.48817 23.9674 11.1216ZM18.0038 34.863V16.2875H23.7779V34.863H18.0038Z" fill="#F5F5F5"/>
<path d="M27.2329 22.2133C27.2329 19.8964 27.157 17.9593 27.0809 16.2874H32.0949L32.3613 18.8707H32.4754C33.2349 17.6549 35.0961 15.8696 38.2107 15.8696C42.0097 15.8696 44.8589 18.415 44.8589 23.8848V34.863H39.0846V24.5685C39.0846 22.1755 38.2492 20.5423 36.16 20.5423C34.5642 20.5423 33.6147 21.6439 33.1967 22.7072C33.0449 23.0871 33.0073 23.6188 33.0073 24.151V34.863H27.2329V22.2133Z" fill="#F5F5F5"/>
<path d="M54.088 24.1128H54.164C54.5821 23.3149 55.0379 22.5554 55.4936 21.8717L59.2539 16.2874H66.2054L59.5579 23.8087L67.1548 34.863H60.0518L55.531 27.2273L54.088 29.0508V34.863H48.3137V7.89258H54.088V24.1128Z" fill="#F5F5F5"/>
<path d="M71.6368 27.4176C71.7888 29.8106 74.1815 30.9504 76.8787 30.9504C78.8541 30.9504 80.4493 30.6843 82.0074 30.1526L82.7667 34.0652C80.8672 34.863 78.5504 35.2429 76.0433 35.2429C69.7373 35.2429 66.1286 31.5963 66.1286 25.7841C66.1286 21.074 69.0539 15.8696 75.5109 15.8696C81.5131 15.8696 83.7923 20.5423 83.7923 25.1384C83.7923 26.1259 83.6779 26.9995 83.6021 27.4176H71.6368ZM78.4361 23.4668C78.4361 22.0615 77.8285 19.7061 75.1695 19.7061C72.7383 19.7061 71.7504 21.948 71.5986 23.4668H78.4361Z" fill="#F5F5F5"/>
<path d="M104.075 7.89258V29.3171C104.075 31.4061 104.151 33.6096 104.227 34.863H99.0988L98.8711 32.1659H98.7577C97.618 34.217 95.3386 35.2813 92.9456 35.2813C88.5394 35.2813 85.0063 31.5204 85.0063 25.7462C84.9687 19.4782 88.8815 15.8319 93.3253 15.8319C95.6424 15.8319 97.3899 16.6674 98.2253 17.9209H98.3013V7.89258H104.075ZM98.3013 24.1509C98.3013 23.8466 98.3013 23.429 98.2253 23.087C97.8838 21.568 96.6305 20.2762 94.8451 20.2762C92.1855 20.2762 90.856 22.6313 90.856 25.5564C90.856 28.7088 92.4141 30.6842 94.807 30.6842C96.4783 30.6842 97.8456 29.545 98.1876 27.9118C98.2638 27.4937 98.3013 27.0382 98.3013 26.582V24.1509Z" fill="#F5F5F5"/>
<path d="M123.769 11.1214C123.769 12.7164 122.591 14.0081 120.654 14.0081C118.831 14.0081 117.653 12.7164 117.653 11.1214C117.653 9.48793 118.869 8.23438 120.73 8.23438C122.591 8.23438 123.731 9.48793 123.769 11.1214ZM117.805 34.8627V16.2873H123.579V34.8627H117.805Z" fill="#1668E8"/>
<path d="M127.035 22.213C127.035 19.8961 126.959 17.9591 126.883 16.2872H131.897L132.163 18.8704H132.277C133.036 17.6546 134.898 15.8694 138.013 15.8694C141.812 15.8694 144.66 18.4147 144.66 23.8846V34.8627H138.887V24.5683C138.887 22.1753 138.05 20.5421 135.961 20.5421C134.366 20.5421 133.417 21.6436 132.999 22.7069C132.846 23.0869 132.808 23.6186 132.808 24.1507V34.8627H127.035V22.213Z" fill="#1668E8"/>
</svg>
