<svg width="105" height="29" viewBox="0 0 105 29" fill="none" xmlns="http://www.w3.org/2000/svg">
<path d="M0 2.25977H5.7738V23.0009H15.954V27.863H0V2.25977Z" fill="#F5F5F5"/>
<path d="M23.9674 4.1216C23.9674 5.71661 22.79 7.00836 20.8528 7.00836C19.0294 7.00836 17.8517 5.71661 17.8517 4.1216C17.8517 2.48817 19.0676 1.23462 20.9289 1.23462C22.79 1.23462 23.9297 2.48817 23.9674 4.1216ZM18.0038 27.863V9.28754H23.7779V27.863H18.0038Z" fill="#F5F5F5"/>
<path d="M27.2329 15.2133C27.2329 12.8964 27.157 10.9593 27.0809 9.28745H32.0949L32.3613 11.8707H32.4754C33.2349 10.6549 35.0961 8.86963 38.2107 8.86963C42.0097 8.86963 44.8589 11.415 44.8589 16.8848V27.863H39.0846V17.5685C39.0846 15.1755 38.2492 13.5423 36.16 13.5423C34.5642 13.5423 33.6147 14.6439 33.1967 15.7072C33.0449 16.0871 33.0073 16.6188 33.0073 17.151V27.863H27.2329V15.2133Z" fill="#F5F5F5"/>
<path d="M54.088 17.1128H54.164C54.5821 16.3149 55.0379 15.5554 55.4936 14.8717L59.2539 9.28738H66.2054L59.5579 16.8087L67.1548 27.863H60.0518L55.531 20.2273L54.088 22.0508V27.863H48.3137V0.892578H54.088V17.1128Z" fill="#F5F5F5"/>
<path d="M71.6368 20.4176C71.7888 22.8106 74.1815 23.9504 76.8787 23.9504C78.8541 23.9504 80.4493 23.6843 82.0074 23.1526L82.7667 27.0652C80.8672 27.863 78.5504 28.2429 76.0433 28.2429C69.7373 28.2429 66.1286 24.5963 66.1286 18.7841C66.1286 14.074 69.0539 8.86963 75.5109 8.86963C81.5131 8.86963 83.7923 13.5423 83.7923 18.1384C83.7923 19.1259 83.6779 19.9995 83.6021 20.4176H71.6368ZM78.4361 16.4668C78.4361 15.0615 77.8285 12.7061 75.1695 12.7061C72.7383 12.7061 71.7504 14.948 71.5986 16.4668H78.4361Z" fill="#F5F5F5"/>
<path d="M104.075 0.892578V22.3171C104.075 24.4061 104.151 26.6096 104.227 27.863H99.0988L98.8711 25.1659H98.7577C97.618 27.217 95.3386 28.2813 92.9456 28.2813C88.5394 28.2813 85.0063 24.5204 85.0063 18.7462C84.9687 12.4782 88.8815 8.83191 93.3253 8.83191C95.6424 8.83191 97.3899 9.66736 98.2253 10.9209H98.3013V0.892578H104.075ZM98.3013 17.1509C98.3013 16.8466 98.3013 16.429 98.2253 16.087C97.8838 14.568 96.6305 13.2762 94.8451 13.2762C92.1855 13.2762 90.856 15.6313 90.856 18.5564C90.856 21.7088 92.4141 23.6842 94.807 23.6842C96.4783 23.6842 97.8456 22.545 98.1876 20.9118C98.2638 20.4937 98.3013 20.0382 98.3013 19.582V17.1509Z" fill="#F5F5F5"/>
</svg>
