<svg width="86" height="29" viewBox="0 0 86 29" fill="none" xmlns="http://www.w3.org/2000/svg">
<path d="M37.1476 28.2761H30.1556L34.5258 1.41772H41.5184L37.1476 28.2761Z" fill="#F5F5F5"/>
<path d="M24.2731 1.41821L17.6063 19.8905L16.8182 15.9126L16.8189 15.914L14.4653 3.83717C14.4653 3.83717 14.1816 1.41821 11.1484 1.41821H0.128655L6.10352e-05 1.87226C6.10352e-05 1.87226 3.37086 2.57345 7.31352 4.94356L13.3884 28.2761H20.6739L31.7985 1.41821H24.2731Z" fill="#F5F5F5"/>
<path d="M79.2713 28.2761H85.6918L80.0939 1.41821H74.4724C71.876 1.41821 71.2438 3.41976 71.2438 3.41976L60.8167 28.2761H68.1043L69.5627 24.2873H78.4516L79.2713 28.2761ZM71.5771 18.7755L75.2518 8.72466L77.3187 18.7755H71.5771Z" fill="#F5F5F5"/>
<path d="M61.3634 7.87682L62.3606 2.10854C62.3606 2.10854 59.2815 0.9375 56.0716 0.9375C52.6017 0.9375 44.3621 2.45482 44.3621 9.8288C44.3621 16.7681 54.0327 16.8543 54.0327 20.4975C54.0327 24.1407 45.3586 23.4898 42.4965 21.1915L41.4562 27.2213C41.4562 27.2213 44.5777 28.7386 49.3494 28.7386C54.1204 28.7386 61.3196 26.2665 61.3196 19.5434C61.3196 12.5603 51.5614 11.9101 51.5614 8.87473C51.5614 5.83791 58.3712 6.22802 61.3634 7.87682Z" fill="#F5F5F5"/>
</svg>
